<svg xmlns="http://www.w3.org/2000/svg" xmlns:xlink="http://www.w3.org/1999/xlink" width="400" height="400" viewBox="0 0 400 400"><defs><linearGradient id="gradient-18" x1="0%" y1="0%" x2="100%" y2="0%" gradientTransform="rotate(109.6, 0.5, 0.5)">       <stop offset="11.2%" stop-color="rgba(20, 30, 48, 1)"/>       <stop offset="91.1%" stop-color="rgba(36, 59, 85, 1)"/>     </linearGradient></defs>
<rect data-name="background" width="100%" height="100%" fill="none"/><g data-name="container" data="container_num:6" fill="#000000" transform="translate(43.19999999999999, 43.19999999999999) scale(6.272)"><path xmlns="http://www.w3.org/2000/svg" d="M24.95 0a25 25 0 1 0 25 25 25 25 0 0 0-25-25zm0 46.91a22 22 0 1 1 22-22 22 22 0 0 1-22 21.99z"/><path xmlns="http://www.w3.org/2000/svg" d="M24.95 3.65a21.3 21.3 0 1 0 21.3 21.3 21.33 21.33 0 0 0-21.3-21.3z"/></g><g data-name="icon" fill="#FFFFFF" data="id:2155305" transform="translate(152.10742652281374, 104.09546581752176) scale(1.9422181577745001)">
  <path d="M45.9335938,10.6552734c-0.8164063-0.1289063-20.0234375-3.1542969-23.2597656-3.2382813  c-0.9091797-0.0507813-2.2734375,0.8203125-3.1513672,1.4233398L12.515625,9.4716797  c-0.6289063-0.0976563-2.5751953-0.3735352-3.5410156-0.1816406c-2.0068359,0.3984375-5.6064453,3.0957031-6.8291016,4.8183594  c-0.8447266,1.1894531-1.5,5.5639648-0.2529297,6.6948242c0.1972656,0.1791992,0.7392578,0.6704102,4.7539063,1  c-1.6601563,1.5629883-3.9580078,3.9868164-4.7275391,6.0566406c-0.8886719,2.3911133-1.6074219,9.4887695-0.3740234,11.0849609  c0.7734375,1.0014648,3.5429688,1.4775391,5.4257813,1.6899414c0.3603516,0.5219727,1.0458984,1.2949219,2.1181641,1.65625  c2.09375,0.7084961,3.90625-0.1938477,4.6455078-0.6616211c0.5341797,0.0400391,1.5566406,0.1015625,2.4257813,0.0732422  c1.0878906-0.0361328,2.1669922-0.1342773,2.8476563-0.206543c0.6542969,1.0791016,2.0224609,2.3291016,4.2578125,2.3291016  c0.2841797,0,0.5830078-0.0205078,0.8955078-0.0634766c2.0654297-0.2866211,3.1513672-2.1298828,3.5869141-3.1020508  l6.390625-1.1152344c0.6445313,0.6992188,1.9882813,1.7944336,3.90625,1.5517578  c2.5966797-0.3310547,3.8085938-2.1420898,4.2285156-3.4628906l3.6933594-0.9350586  c1.4501953-0.3803711,2.4638672-1.6928711,2.4638672-3.1923828V13.5581055  C48.4384766,12.1030273,47.3564453,10.8535156,45.9335938,10.6552734z M9.3642578,11.2519531  c0.5117188-0.1030273,2.0371094,0.0644531,2.9560547,0.2138672c0.0839844,0.0131836,0.1679688,0.0161133,0.2509766,0.0092773  l7.3955078-0.6665039c0.1757813-0.0161133,0.3447266-0.078125,0.4882813-0.1806641  c0.8447266-0.5986328,1.8925781-1.1767578,2.1669922-1.2119141c0.1170654,0.0030518,0.2648315,0.0117188,0.427063,0.0230103  c-1.1791382,0.9064331-2.5794678,2.4371338-4.0305786,4.0785522c-0.4238281,0.4799805-0.8632813,0.9765625-0.9306641,1.0371094  c-0.7861328,0.3232422-8.921875,0.5283203-12.3955078,0.6157227c-0.796814,0.0202026-1.413147,0.0360107-1.8775635,0.0494995  C4.857666,13.7941284,8.0360718,11.5153809,9.3642578,11.2519531z M5.0756836,19.6218872l13.1567383-0.2874146l3.8849487,0.7303467  l-0.3605347,0.0220947l-12.557373-0.1184082c-0.0151978-0.0014648-0.0288086-0.0083008-0.0441895-0.0090332  C7.7850342,19.8927002,6.2608643,19.7666626,5.0756836,19.6218872z M8.8970947,22.4547119  c2.2418823-0.0731812,8.3432007,0.2510376,10.5150146,0.3743896c-0.2431641,0.4150391-0.6259766,1.0112305-1.1826172,1.7426758  c-1.0527344,1.3818359-1.6376953,2.0429688-1.8779297,2.2998047c-1.3425293,0.0061035-8.6020508-0.0099487-11.1157837-0.6431274  C6.3613892,24.8162842,7.8379517,23.3943481,8.8970947,22.4547119z M3.2929077,30.6000977  c0.3630981,0.3097534,0.6040649,0.7529907,0.6016235,1.2524414l-0.7664185-0.1456299  C3.1763916,31.3260498,3.2316284,30.9562988,3.2929077,30.6000977z M9.7275391,40.3964844  c-0.2843628-0.0960693-0.5194702-0.2631836-0.7095337-0.439209c0.8552856,0.1445313,1.8505249,0.2946777,2.7158813,0.4187012  C11.1848755,40.5546875,10.4844971,40.6518555,9.7275391,40.3964844z M23.8867188,41.7802734  c-2.1936035,0.3025513-3.0339355-1.0166626-3.2711792-1.5139771c0.4603882-0.1182251,0.8190918-0.3258057,0.838562-0.7623901  c0.1308594-3.03125,0.8671875-4.3110352,1.4619141-4.8505859c0.4042969-0.3657227,0.8730469-0.5351563,1.4658203-0.4975586  c0.4541016,0.0244141,0.8291016,0.2412109,1.1445313,0.6625977c0.7265625,0.9692383,0.9712944,2.8622475,0.5888672,4.5024414  C25.9705887,39.9411774,25.3818359,41.5732422,23.8867188,41.7802734z M27.2259521,38.7202759  c0.177124-1.4942017-0.0164185-3.3243408-0.8988037-4.5015259c-0.4912109-0.6547852-1.1455078-1.0214844-1.8925781-1.0620117  c-0.8417969-0.0400391-1.5869141,0.2089844-2.1904297,0.7563477c-1.0449219,0.9482422-1.6435547,2.7504883-1.7802734,5.3588867  c-0.2236328,0.0703125-0.6757813,0.1259766-0.8642578,0.1494141c-0.0007324,0.000061-0.0012207,0.0006104-0.0019531,0.0006714  c-0.0003662,0-0.0006104-0.0001831-0.0009766-0.0001831c-0.0429688,0-0.0859375,0.0024414-0.1289063,0.0083008  c-0.0166016,0.0019531-1.7128906,0.21875-3.3740234,0.2734375c-1.0927734,0.0356445-2.5263672-0.09375-2.5410156-0.0952148  c-0.0120239-0.0012817-0.0237427,0.0043335-0.0357666,0.00354c-0.0022583-0.0003052-0.0039673-0.00177-0.0062256-0.0020752  c-1.296875-0.1630859-4.4658203-0.6235352-5.6484375-0.8862305c-0.0292358-0.0061035-0.057251,0.000061-0.0861816-0.0009155  c-0.0369263-0.0079346-0.0719604-0.0217285-0.1101074-0.0254517c-2.0517578-0.2011719-4.1865234-0.671875-4.5253906-0.956543  c-0.3144531-0.5385742-0.3334961-2.7911987-0.1220093-5.0366211l1.2538452,0.2382813  c0.03125,0.0058594,0.0625,0.0087891,0.09375,0.0087891c0.1113281,0,0.2197266-0.0371094,0.3085938-0.1069336  c0.1142578-0.0888672,0.1835938-0.2231445,0.1904297-0.3671875l0.0253906-0.4912109  c0.0559692-1.0371704-0.5081177-1.9819946-1.3803711-2.4630127c0.086792-0.3612671,0.1810913-0.6901855,0.2836914-0.9661865  c0.1697998-0.4571533,0.4537964-0.9568481,0.8063965-1.472168c0.010437,0.0041504,0.0177002,0.0125732,0.0285645,0.0161133  c2.2041016,0.7167969,9.2451172,0.7714844,11.3505859,0.7714844c0.3271484,0,0.5361328-0.0009766,0.5878906-0.0014648  c0.125-0.0009766,0.2460938-0.0488281,0.3378906-0.1347656c0.0244141-0.0224609,0.6113281-0.578125,2.1191406-2.5576172  c1.1982422-1.5732422,1.6367188-2.5615234,1.6542969-2.6030273c0.0654297-0.1499023,0.0537109-0.3217773-0.03125-0.4614258  c-0.0859375-0.1391602-0.2333984-0.2280273-0.3964844-0.237793c-0.3108521-0.0189819-6.6726685-0.4017334-10.1228027-0.4316406  c0.3476563-0.2561646,0.6628418-0.4246216,1.291748-0.4384766c0.0252686-0.0006104,0.0467529-0.0119019,0.0709839-0.0160522  l10.2913208,0.0961304l5.5964355-0.3424072c0.4787598,2.0093384,0.8133545,15.6553955,0.4382324,17.8736572L27.2259521,38.7202759z   M34.1306763,37.5152588l-1.7849731,0.3115234V19.3334961h1.9335938L34.1306763,37.5152588z M37.7919922,39.1118164  c-1.0738525,0.1403198-1.8458252-0.5395508-2.1972046-0.9342041c0.5791626-0.1981812,1.2002563-0.501709,1.812439-1.0535889  c0.2832031-0.2553711,0.453125-0.7192383,0.6894531-1.3618164c0.4697266-1.2802734,0.9257813-2.3398438,1.7490234-2.340332  c0,0,0,0,0.0009766,0c0.1728516,0,0.2949219,0.0507813,0.3945313,0.1640625  c0.2001953,0.2270508,0.5661125,0.9161186,0.2431641,2.9038086C40.4078445,36.9607849,40.0673828,38.8222656,37.7919922,39.1118164z   M46.4306641,33.5058594c0,0.5908203-0.3994141,1.1079102-0.9628906,1.2558594l-3.9105225,0.9896851  c0.0862427-1.3621826-0.0982056-2.2952881-0.56604-2.8265991c-0.2900391-0.3291016-0.6855469-0.5029297-1.1455078-0.5029297  c-1.5888672,0.0009766-2.25,1.8032227-2.6875,2.9960938c-0.1337891,0.3632813-0.3164063,0.8613281-0.4208984,0.9633789  c-0.5314941,0.4793091-1.078064,0.7214355-1.6045532,0.8874512l0.1504517-18.4313965  c0.0009766-0.1333008-0.0507813-0.2612305-0.1445313-0.355957c-0.0947266-0.0947266-0.2216797-0.1479492-0.3554688-0.1479492  h-2.9375c-0.2763672,0-0.5,0.2236328-0.5,0.5v19.1678467L28.8361816,38.43927  c0.3215332-3.1964111,0.013855-14.9563599-0.4691162-17.7562256l1.5635986-0.0956421  c0.2763672-0.0166016,0.4853516-0.2539063,0.46875-0.5297852c-0.0175781-0.2753906-0.2597656-0.484375-0.5292969-0.4682617  l-3.6724243,0.2252197l-7.8314819-1.47229c-0.0351563-0.0063477-0.0683594-0.0092773-0.1035156-0.0087891l-15.055481,0.3287354  c-0.0244751-0.6984253,0.0620728-1.6703491,0.229126-2.4304199c0.5125122-0.0168457,1.328125-0.0374146,2.2814331-0.0614014  c9.0185547-0.2275391,12.2578125-0.4125977,12.8378906-0.7324219c0.1777344-0.0981445,0.3886719-0.3256836,1.2119141-1.2578125  c1.0840454-1.225769,3.9152222-4.4266357,5.000061-4.5726318c6.0314331,0.6884766,20.6851196,2.9967041,20.8720093,3.0257568  c0.453125,0.0634766,0.7929688,0.456543,0.7910156,0.9199219V33.5058594z M29.0322266,13.7666016l-4.3457031-0.265625  c-0.1318359-0.0004883-0.2734375,0.0410156-0.3730469,0.1347656C24.2128906,13.7304688,24.15625,13.8623047,24.15625,14v3.25  c0,0.2641602,0.2060547,0.4829102,0.4697266,0.4990234l4.3457031,0.265625  c0.0097656,0.0004883,0.0205078,0.0009766,0.0302734,0.0009766c0.1269531,0,0.25-0.0483398,0.3427734-0.1357422  c0.1005859-0.0947266,0.1572266-0.2265625,0.1572266-0.3642578v-3.25  C29.5019531,14.0014648,29.2958984,13.7827148,29.0322266,13.7666016z M28.5019531,16.9838867L25.15625,16.7797852v-2.2480469  l3.3457031,0.2041016V16.9838867z M26.9023438,28.519043c0.0419922,0.2729492-0.1464844,0.527832-0.4189453,0.5688477  l-1.03125,0.15625C25.4267578,29.2480469,25.4013672,29.25,25.3759766,29.25c-0.2431641,0-0.4560547-0.1772461-0.4931641-0.425293  c-0.0419922-0.2729492,0.1464844-0.527832,0.4189453-0.5688477l1.03125-0.15625  C26.6064453,28.0634766,26.8613281,28.2456055,26.9023438,28.519043z M26.6640625,26.8286133l0.0898438-4.3022461  c0.0048828-0.2597656-0.1894531-0.4804688-0.4472656-0.5073242c-0.4560547-0.0483398-2.7695313-0.2607422-3.6279297,0.2626953  c-1.4658203,0.8955078-2.9570313,4.6772461-3.1220703,5.105957c-0.0625,0.1635742-0.0351563,0.3486328,0.0722656,0.4868164  c0.0957031,0.1225586,0.2412109,0.1928711,0.3945313,0.1928711c0.0205078,0,0.0400391-0.0009766,0.0605469-0.0039063  l6.140625-0.7490234C26.4716797,27.284668,26.6591797,27.0776367,26.6640625,26.8286133z M25.6728516,26.3745117  l-4.8623047,0.5932617c0.6425781-1.480957,1.6435547-3.3764648,2.3896484-3.8325195  c0.2255859-0.1376953,0.8427734-0.1972656,1.5488281-0.1972656c0.3222656,0,0.6640625,0.012207,0.9951172,0.0356445  L25.6728516,26.3745117z M18.5966797,30.6875l-3.3017578,0.0664063c-1.3222656,0.0263672-2.4345703,1.0371094-2.5869141,2.3510742  l-0.0566406,0.4892578c-0.0166016,0.1435547,0.0302734,0.2871094,0.1269531,0.394043  c0.0947266,0.1040039,0.2294922,0.1635742,0.3701172,0.1635742c0.0029297,0,0.0068359,0,0.0097656,0l3.3378906-0.0644531  c1.4375-0.0273438,2.5820313-1.175293,2.6054688-2.612793l0.0048828-0.2783203  c0.0019531-0.1357422-0.0507813-0.2670898-0.1464844-0.362793C18.8632813,30.737793,18.7373047,30.6757813,18.5966797,30.6875z   M16.4765625,33.0874023l-2.7636719,0.0532227c0.1289063-0.7802734,0.8037109-1.3710938,1.6015625-1.3867188l2.7666016-0.0556641  C17.9560547,32.4794922,17.2919922,33.0722656,16.4765625,33.0874023z M42.0439453,18.4418945  c0-0.2685547-0.2128906-0.4892578-0.4814453-0.4995117L36.5,17.7504883  c-0.1396484-0.0102539-0.2685547,0.0454102-0.3652344,0.1391602c-0.0976563,0.0942383-0.1533203,0.2246094-0.1533203,0.3603516  v3.7915039c0,0.2685547,0.2128906,0.4892578,0.4814453,0.4995117l5.0625,0.1918945  c0.0058594,0.0004883,0.0126953,0.0004883,0.0185547,0.0004883c0.1289063,0,0.2539063-0.0498047,0.3466797-0.1396484  c0.0976563-0.0942383,0.1533203-0.2246094,0.1533203-0.3603516V18.4418945z M41.0439453,21.7138672l-4.0625-0.1538086v-2.7905273  l4.0625,0.1538086V21.7138672z M45.2695313,26.6889648l-2.7841797,0.2124023  c-0.2607422,0.0200195-0.4619141,0.2373047-0.4619141,0.4985352v4.3959961c0,0.1391602,0.0576172,0.2719727,0.1601563,0.3666992  c0.0927734,0.0859375,0.2138672,0.1333008,0.3398438,0.1333008c0.0126953,0,0.0253906-0.0004883,0.0380859-0.0014648  l2.7841797-0.2124023c0.2607422-0.0200195,0.4619141-0.2373047,0.4619141-0.4985352V27.1875  c0-0.1391602-0.0576172-0.2719727-0.1601563-0.3666992S45.4052734,26.6767578,45.2695313,26.6889648z M44.8076172,31.1201172  l-1.7841797,0.1362305v-3.3930664l1.7841797-0.1362305V31.1201172z"/>
  </g><g data-name="business_name" fill="#FFFFFF" data="id:323" transform="translate(101.68735934746526, 198.02508475709553) scale(1.2161384972503284)"><path d="M7.12,11.2l19.2,0c2.68,0,4.8,2.12,4.8,4.8l0,24l-3.24,0l0-10.52l-22.32,0l0,10.52l-3.24,0l0-24c0-2.68,2.12-4.8,4.8-4.8z M5.56,26.24l22.32,0l0-10.24c0-0.84-0.72-1.56-1.56-1.56l-19.2,0c-0.84,0-1.56,0.72-1.56,1.56l0,10.24z M35.52,40l0-23.2l3.28,0l0,23.2l-3.28,0z M35.52,9.2l3.28,0l0,3.28l-3.28,0l0-3.28z M48.68,16.8l13.04,0l0,3.28l-13.04,0c-0.84,0-1.56,0.72-1.56,1.56l0,18.36l-3.28,0l0-18.36c0-2.68,2.16-4.84,4.84-4.84z M93.2,14.44l-23.92,0c-0.84,0-1.56,0.72-1.56,1.56l0,19.2c0,0.84,0.72,1.56,1.56,1.56l23.92,0l0,3.24l-23.92,0c-2.68,0-4.8-2.12-4.8-4.8l0-19.2c0-2.68,2.12-4.8,4.8-4.8l23.92,0l0,3.24z M122.92,36.32l0-25.12l3.24,0l0,28.8l-4.44,0l-21.12-25.12l0,25.12l-3.24,0l0-28.8l4.44,0z M159.36,14.44l-23.92,0c-0.84,0-1.56,0.72-1.56,1.56l0,19.2c0,0.84,0.72,1.56,1.56,1.56l23.92,0l0,3.24l-23.92,0c-2.68,0-4.8-2.12-4.8-4.8l0-19.2c0-2.68,2.12-4.8,4.8-4.8l23.92,0l0,3.24z"/></g><g data-name="slogan" fill="#FFFFFF" data="id:43" transform="translate(102.87507544910179, 245.41049583724117) scale(0.6434361308152925)"><path d="M15.5078125,48.37890625q-4.140625,0-7.041015625-1.826171875t-4.4140625-5.078125t-1.513671875-7.548828125l0-0.3515625q0-4.296875,1.5625-7.548828125t4.365234375-5.078125t6.513671875-1.826171875q3.0859375,0,5.05859375,0.78125t3.7109375,2.3046875l0,5.01953125l-1.07421875,0l0-4.5703125q-1.0546875-0.80078125-2.119140625-1.34765625t-2.3828125-0.83984375t-3.193359375-0.29296875q-3.359375,0-5.927734375,1.6796875t-4.013671875,4.6875t-1.4453125,6.9921875l0,0.390625q0,3.984375,1.416015625,7.001953125t4.072265625,4.70703125t6.3671875,1.689453125q2.1484375,0,4.140625-0.546875t3.37890625-1.484375l0-4.58984375l1.07421875,0l0,5.25390625q-1.8359375,1.23046875-3.984375,1.826171875t-4.55078125,0.595703125z M34.47265625,48.37890625q-2.7734375,0-4.443359375-1.591796875t-1.669921875-4.169921875q0-1.89453125,1.142578125-3.349609375t3.22265625-2.275390625t4.892578125-0.8203125l4.86328125,0l0-2.6953125q0-2.63671875-1.5234375-4.31640625t-4.78515625-1.6796875q-1.71875,0-3.14453125,0.64453125t-2.421875,1.5625l0,3.45703125l-1.0546875,0l0-4.0234375q1.30859375-1.2109375,2.919921875-1.943359375t3.720703125-0.732421875q3.65234375,0,5.498046875,1.904296875t1.845703125,5.166015625l0,10.1953125q0,0.8203125,0.068359375,1.62109375t0.224609375,1.58203125l2.9296875,0l0,1.0546875l-3.84765625,0q-0.25390625-1.38671875-0.341796875-2.119140625t-0.087890625-1.767578125q-1.19140625,1.9140625-3.271484375,3.10546875t-4.736328125,1.19140625z M34.47265625,47.34375q2.40234375,0,4.6484375-1.34765625t3.359375-3.73046875l0-5.01953125l-4.8046875,0q-3.73046875,0-5.99609375,1.513671875t-2.265625,3.935546875q0,1.97265625,1.42578125,3.310546875t3.6328125,1.337890625z M49.86328125,47.96875l0-1.0546875l3.18359375,0l0-19.0234375l-3.18359375,0l0-1.0546875l4.04296875,0l0.1953125,3.671875l0,0.72265625q0.87890625-2.265625,2.6171875-3.525390625t4.27734375-1.259765625q0.44921875,0,1.025390625,0.078125t0.849609375,0.15625l-0.1171875,0.9375l-1.7578125-0.13671875q-2.83203125,0-4.599609375,1.826171875t-2.294921875,4.814453125l0,12.79296875l3.18359375,0l0,1.0546875l-7.421875,0z M73.7109375,48.37890625q-2.3046875,0-4.248046875-0.7421875t-3.251953125-2.05078125l0-3.76953125l1.0546875,0l0,3.18359375q1.15234375,1.23046875,2.8515625,1.77734375t3.59375,0.546875q2.9296875,0,4.6484375-1.3671875t1.71875-3.1640625q0-1.6796875-1.435546875-3.056640625t-5.009765625-2.158203125q-3.73046875-0.78125-5.322265625-2.05078125t-1.591796875-3.69140625q0-1.5234375,0.8203125-2.744140625t2.353515625-1.93359375t3.642578125-0.712890625q2.265625,0,3.994140625,0.78125t2.919921875,2.08984375l0,3.9453125l-1.0546875,0l0-3.41796875q-1.015625-1.1328125-2.40234375-1.73828125t-3.45703125-0.60546875q-2.87109375,0-4.31640625,1.328125t-1.4453125,2.96875q0,1.1328125,0.478515625,1.9921875t1.806640625,1.533203125t3.88671875,1.240234375q3.5546875,0.78125,5.37109375,2.24609375t1.81640625,4.00390625q0,2.48046875-2.03125,4.0234375t-5.390625,1.54296875z  M96.71875,26.0546875l0.29296875-5.21484375l0-3.33984375l1.07421875,0l0,3.30078125l-0.390625,5.25390625l-0.9765625,0z M103.4375,47.96875l0-1.0546875l3.18359375,0l0-19.0234375l-3.18359375,0l0-1.0546875l4.08203125,0l0.13671875,4.35546875q0.95703125-2.265625,2.79296875-3.505859375t4.53125-1.240234375q3.45703125,0,5.185546875,2.177734375t1.728515625,6.904296875l0,11.38671875l3.18359375,0l0,1.0546875l-7.421875,0l0-1.0546875l3.18359375,0l0-11.42578125q0-4.39453125-1.572265625-6.19140625t-4.267578125-1.796875q-3.41796875,0-5.15625,2.041015625t-2.16796875,5.224609375l0,12.1484375l3.18359375,0l0,1.0546875l-7.421875,0z M130.72265625,26.0546875l0.29296875-5.21484375l0-3.33984375l1.07421875,0l0,3.30078125l-0.390625,5.25390625l-0.9765625,0z M151.2109375,48.37890625q-4.140625,0-7.041015625-1.826171875t-4.4140625-5.078125t-1.513671875-7.548828125l0-0.3515625q0-4.296875,1.5625-7.548828125t4.365234375-5.078125t6.513671875-1.826171875q3.0859375,0,5.05859375,0.78125t3.7109375,2.3046875l0,5.01953125l-1.07421875,0l0-4.5703125q-1.0546875-0.80078125-2.119140625-1.34765625t-2.3828125-0.83984375t-3.193359375-0.29296875q-3.359375,0-5.927734375,1.6796875t-4.013671875,4.6875t-1.4453125,6.9921875l0,0.390625q0,3.984375,1.416015625,7.001953125t4.072265625,4.70703125t6.3671875,1.689453125q2.1484375,0,4.140625-0.546875t3.37890625-1.484375l0-4.58984375l1.07421875,0l0,5.25390625q-1.8359375,1.23046875-3.984375,1.826171875t-4.55078125,0.595703125z M170.17578125,48.37890625q-2.7734375,0-4.443359375-1.591796875t-1.669921875-4.169921875q0-1.89453125,1.142578125-3.349609375t3.22265625-2.275390625t4.892578125-0.8203125l4.86328125,0l0-2.6953125q0-2.63671875-1.5234375-4.31640625t-4.78515625-1.6796875q-1.71875,0-3.14453125,0.64453125t-2.421875,1.5625l0,3.45703125l-1.0546875,0l0-4.0234375q1.30859375-1.2109375,2.919921875-1.943359375t3.720703125-0.732421875q3.65234375,0,5.498046875,1.904296875t1.845703125,5.166015625l0,10.1953125q0,0.8203125,0.068359375,1.62109375t0.224609375,1.58203125l2.9296875,0l0,1.0546875l-3.84765625,0q-0.25390625-1.38671875-0.341796875-2.119140625t-0.087890625-1.767578125q-1.19140625,1.9140625-3.271484375,3.10546875t-4.736328125,1.19140625z M170.17578125,47.34375q2.40234375,0,4.6484375-1.34765625t3.359375-3.73046875l0-5.01953125l-4.8046875,0q-3.73046875,0-5.99609375,1.513671875t-2.265625,3.935546875q0,1.97265625,1.42578125,3.310546875t3.6328125,1.337890625z M185.56640625,47.96875l0-1.0546875l3.18359375,0l0-19.0234375l-3.18359375,0l0-1.0546875l4.1015625,0l0.13671875,4.35546875q0.95703125-2.24609375,2.75390625-3.49609375t4.375-1.25q2.734375,0,4.443359375,1.396484375t2.353515625,4.306640625q0.83984375-2.6953125,2.744140625-4.208984375t4.755859375-1.513671875q3.49609375,0,5.3125,2.28515625t1.81640625,7.1875l0,10.99609375l3.18359375,0l0,1.0546875l-7.44140625,0l0-1.0546875l3.18359375,0l0-11.03515625q0-4.58984375-1.640625-6.484375t-4.375-1.89453125q-3.359375,0-5.078125,2.021484375t-2.109375,5.146484375l0,12.265625l3.18359375,0l0,1.0546875l-7.44140625,0l0-1.0546875l3.18359375,0l0-11.03515625q0-4.609375-1.640625-6.494140625t-4.39453125-1.884765625q-3.28125,0-4.98046875,1.923828125t-2.16796875,4.990234375l0,12.5l3.18359375,0l0,1.0546875l-7.44140625,0z M223.76953125,56.09375l0-1.0546875l3.18359375,0l0-27.1484375l-3.18359375,0l0-1.0546875l4.00390625,0l0.21484375,3.7890625q1.0546875-1.953125,2.87109375-3.06640625t4.31640625-1.11328125q2.48046875,0,4.267578125,1.337890625t2.744140625,3.798828125t0.95703125,5.80078125l0,0.41015625q0,3.26171875-0.947265625,5.634765625t-2.724609375,3.662109375t-4.2578125,1.2890625t-4.326171875-0.99609375t-2.880859375-2.6953125l0,10.3515625l3.18359375,0l0,1.0546875l-7.421875,0z M235.234375,47.32421875q3.33984375,0,5.087890625-2.578125t1.748046875-6.953125l0-0.41015625q0-2.9296875-0.791015625-5.15625t-2.32421875-3.4765625t-3.759765625-1.25q-3.06640625,0-4.765625,1.54296875t-2.421875,3.7890625l0,9.8828125q0.78125,2.109375,2.6171875,3.359375t4.609375,1.25z M256.19140625,48.37890625q-2.5390625,0-4.53125-1.298828125t-3.14453125-3.59375t-1.15234375-5.283203125l0-1.25q0-3.02734375,1.11328125-5.400390625t3.056640625-3.740234375t4.404296875-1.3671875q2.3828125,0,4.169921875,1.064453125t2.7734375,2.998046875t0.986328125,4.5703125l0,1.62109375l-15.44921875,0l0,1.50390625q0,2.6171875,0.99609375,4.677734375t2.75390625,3.251953125t4.0234375,1.19140625q2.01171875,0,3.564453125-0.693359375t2.763671875-1.884765625l0.56640625,0.8203125q-1.30859375,1.25-2.96875,2.03125t-3.92578125,0.78125z M248.6328125,35.64453125l14.1796875,0l0-0.64453125q0-2.1484375-0.849609375-3.84765625t-2.392578125-2.67578125t-3.6328125-0.9765625q-1.9921875,0-3.59375,1.0546875t-2.59765625,2.87109375t-1.171875,4.1015625z M268.0859375,47.96875l0-1.0546875l3.18359375,0l0-19.0234375l-3.18359375,0l0-1.0546875l4.04296875,0l0.1953125,3.671875l0,0.72265625q0.87890625-2.265625,2.6171875-3.525390625t4.27734375-1.259765625q0.44921875,0,1.025390625,0.078125t0.849609375,0.15625l-0.1171875,0.9375l-1.7578125-0.13671875q-2.83203125,0-4.599609375,1.826171875t-2.294921875,4.814453125l0,12.79296875l3.18359375,0l0,1.0546875l-7.421875,0z M291.93359375,48.37890625q-2.3046875,0-4.248046875-0.7421875t-3.251953125-2.05078125l0-3.76953125l1.0546875,0l0,3.18359375q1.15234375,1.23046875,2.8515625,1.77734375t3.59375,0.546875q2.9296875,0,4.6484375-1.3671875t1.71875-3.1640625q0-1.6796875-1.435546875-3.056640625t-5.009765625-2.158203125q-3.73046875-0.78125-5.322265625-2.05078125t-1.591796875-3.69140625q0-1.5234375,0.8203125-2.744140625t2.353515625-1.93359375t3.642578125-0.712890625q2.265625,0,3.994140625,0.78125t2.919921875,2.08984375l0,3.9453125l-1.0546875,0l0-3.41796875q-1.015625-1.1328125-2.40234375-1.73828125t-3.45703125-0.60546875q-2.87109375,0-4.31640625,1.328125t-1.4453125,2.96875q0,1.1328125,0.478515625,1.9921875t1.806640625,1.533203125t3.88671875,1.240234375q3.5546875,0.78125,5.37109375,2.24609375t1.81640625,4.00390625q0,2.48046875-2.03125,4.0234375t-5.390625,1.54296875z"/></g></svg>